<?xml version="1.0" ?><svg clip-rule="evenodd" fill-rule="evenodd" image-rendering="optimizeQuality" shape-rendering="geometricPrecision" text-rendering="geometricPrecision" viewBox="0 0 500 500" xmlns="http://www.w3.org/2000/svg"><defs><linearGradient gradientUnits="userSpaceOnUse" id="a" x1="345.552" x2="29.998" y1="227.99" y2="227.99"><stop offset="0" stop-color="#008BFF"/><stop offset="1" stop-color="#0af"/></linearGradient></defs><g><rect fill="#D5D6D6" height="389" rx="23" ry="22" width="250" x="210" y="35"/><rect fill="none" height="389" rx="23" ry="22" stroke="#434242" stroke-width="30" width="250" x="210" y="35"/><path d="M34 236l95 73c3 2 7 3 11 1 3-2 5-5 5-9v-42h191c5 0 10-5 10-10v-40c0-5-5-10-10-10h-191v-44c0-4-2-7-5-9-4-2-8-1-11 1l-95 73c-3 2-4 5-4 8s1 6 4 8z" fill="url(#a)" stroke="#434242" stroke-width="10"/><path d="M290 77l137-30c12-3 23 10 23 23l3 317c0 13-11 20-24 23l-136 40c-12 4-23-10-23-23l-3-327c0-13 11-21 23-23z" fill="#f5f5f5" stroke="#434242" stroke-width="10"/></g></svg>