<?xml version="1.0" ?><svg style="enable-background:new 0 0 48 48;" version="1.1" viewBox="0 0 48 48" xml:space="preserve" xmlns="http://www.w3.org/2000/svg" xmlns:xlink="http://www.w3.org/1999/xlink"><g id="Icons"><g><path d="M17.56994,31.91747l-2.07129,2.8428l5.01227-1.47493    c0.04072-0.01199,0.08335-0.01218,0.12421-0.00068c1.06186,0.29891,2.18781,0.46508,3.36487,0.46508    c6.22,0,11.27-4.59,11.27-10.26c0-5.66-5.05-10.25-11.27-10.25s-11.27,4.59-11.27,10.25c0,3.49,1.91,6.57,4.84,8.43    L17.56994,31.91747z" style="fill:#E52046;"/><path d="    M17.56994,31.91747l-2.07129,2.8428l5.01227-1.47493c0.04072-0.01199,0.08335-0.01218,0.12421-0.00068    c1.06186,0.29891,2.18781,0.46508,3.36487,0.46508c6.22,0,11.27-4.59,11.27-10.26c0-5.66-5.05-10.25-11.27-10.25    s-11.27,4.59-11.27,10.25c0,3.49,1.91,6.57,4.84,8.43L17.56994,31.91747z" style="fill:none;stroke:#303030;stroke-width:0.7;stroke-linecap:round;stroke-linejoin:round;stroke-miterlimit:10;"/><circle cx="20.17683" cy="23.49474" r="0.97262" style="fill:#FFFFFF;"/><circle cx="24" cy="23.49474" r="0.97262" style="fill:#FFFFFF;"/><circle cx="27.82317" cy="23.49474" r="0.97262" style="fill:#FFFFFF;"/></g></g></svg>