<?xml version="1.0" ?><svg style="enable-background:new 0 0 48 48;" version="1.1" viewBox="0 0 48 48" xml:space="preserve" xmlns="http://www.w3.org/2000/svg" xmlns:xlink="http://www.w3.org/1999/xlink"><g id="Icons"><g><path d="M20.0276,27.36802l-5.77602,1.53172c-3.13141,0.83037-5.60037,2.81773-6.66272,5.36297    l-1.54857,3.71019c0,0,17.2137,6.44078,35.91942,0.02954l-1.54845-3.71008c-1.06235-2.54525-3.53142-4.5326-6.66283-5.36297    l-5.77591-1.53172" style="fill:#1FAA22;"/><path d="    M20.15547,25.88524l-0.12787,1.48278l-5.77602,1.53172c-3.13141,0.83037-5.60037,2.81773-6.66272,5.36297l-1.54857,3.71019    c0,0,17.2137,6.44078,35.91942,0.02954l-1.54845-3.71008c-1.06235-2.54525-3.53142-4.5326-6.66283-5.36297l-5.77591-1.53172    l-0.11656-1.43593" style="fill:none;stroke:#30302F;stroke-width:0.8;stroke-linecap:round;stroke-linejoin:round;stroke-miterlimit:10;"/><path d="M19.74242,27.39767c0,0-1.77066,1.833-2.14488,3.67374s-0.12651,3.75327,2.31821,4.70953    c2.44472,0.95626,4.02838,0.9785,4.02838,0.9785s3.53165-0.48925,5.09927-1.80133c1.56761-1.31208,1.2381-2.9892,1.00303-3.86953    c-0.23507-0.88033-2.07391-3.69091-2.07391-3.69091C25.55071,30.92532,22.80791,30.93185,19.74242,27.39767z" style="fill:#F43735;"/><path d="M21.7981,7.15575c0,0-4.36877,1.37509-4.88638,4.9218s-0.27273,4.17268-0.24831,4.87173    c0.02441,0.69905,0.3477,1.53823,0.63193,2.66169c0.28424,1.12346,0.28488,1.86157,0.66843,2.83344    c0.38355,0.97187,1.83859,4.59286,5.79884,4.95328c0,0,4.29156-0.27812,5.63221-3.57059s0.97423-3.62187,1.40585-5.12307    c0.43162-1.50121,0.82222-1.91223,0.59934-5.05509s-1.4628-5.71256-5.27255-6.49318c0,0,0.1164,3.39837-2.17143,3.60817    C23.95603,10.76392,21.48864,10.35333,21.7981,7.15575z" style="fill:#1FAA22;"/><path d="M19.74242,27.39769c0,0-2.09779,2.65484-2.30993,5.14127c0,0-3.30484-0.89899-7.1079,2.04669    c-3.80306,2.94569-4.2843,3.38726-4.2843,3.38726s0.65681-2.50594,1.86858-4.60816s2.89425-3.51248,5.71551-4.27966    C16.44564,28.31791,19.74242,27.39769,19.74242,27.39769z" style="fill:#F43735;"/><path d="M28.28937,27.39769c0,0,2.09779,2.65484,2.30993,5.14127c0,0,3.30485-0.89899,7.1079,2.04669    c3.80306,2.94569,4.2843,3.38726,4.2843,3.38726s-0.65681-2.50594-1.86858-4.60816s-2.89425-3.51248-5.71551-4.27966    C31.58616,28.31791,28.28937,27.39769,28.28937,27.39769z" style="fill:#F43735;"/><path d="M20.15547,25.88524l-0.23972,1.51244c0,0,1.71048,2.81247,4.03658,2.64063    c2.32611-0.17184,4.02018-2.64063,4.02018-2.64063l-0.25896-1.43967c0,0-1.86052,1.51509-3.78488,1.41001    C22.00432,27.26295,20.15547,25.88524,20.15547,25.88524z" style="fill:#F9D9C0;"/><path d="M17.55282,14.83846c0,0-0.83431,2.12551-0.865,2.80987l0.76751,2.4795l6.63977,3.21782    l6.18032-3.22642c0,0,1.20226-2.54907,1.03648-2.58931c-0.16578-0.04024,0.04496-1.91804-1.03512-2.69147L24.0951,17.5537    L17.55282,14.83846z" style="fill:#FFC601;"/><polygon points="25.12225,18.92985 25.12225,19.30873 29.0434,19.30873 29.0434,17.23918   " style="fill:#FFFFFF;"/><polygon points="23.08192,18.92985 23.08192,19.30873 19.16064,19.30873 19.16064,17.23918   " style="fill:#FFFFFF;"/><path d="    M20.0276,27.36802l-5.77602,1.53172c-3.13141,0.83037-5.60037,2.81773-6.66272,5.36297l-1.54857,3.71019    c0,0,17.2137,6.44078,35.91942,0.02954l-1.54845-3.71008c-1.06235-2.54525-3.53142-4.5326-6.66283-5.36297l-5.77591-1.53172" style="fill:none;stroke:#30302F;stroke-width:0.8;stroke-linecap:round;stroke-linejoin:round;stroke-miterlimit:10;"/><path d="    M27.97252,27.39769c0,0-3.62086,5.96114-7.94492-0.02966" style="fill:none;stroke:#30302F;stroke-width:0.8;stroke-linecap:round;stroke-linejoin:round;stroke-miterlimit:10;"/><path d="    M20.15547,25.88524l-0.12787,1.48278l-5.77602,1.53172c-3.13141,0.83037-5.60037,2.81773-6.66272,5.36297l-1.54857,3.71019    c0,0,17.2137,6.44078,35.91942,0.02954l-1.54845-3.71008c-1.06235-2.54525-3.53142-4.5326-6.66283-5.36297l-5.77591-1.53172    l-0.11656-1.43593" style="fill:none;stroke:#30302F;stroke-width:0.8;stroke-linecap:round;stroke-linejoin:round;stroke-miterlimit:10;"/><path d="    M30.04827,22.10696c-0.75951,3.03724-3.21173,5.26107-6.1196,5.26107c-2.85512,0-5.26672-2.3292-6.07228-5.28207l-0.4344-2.12088    l6.6731,3.38058l6.45555-3.3701" style="fill:none;stroke:#30302F;stroke-width:0.8;stroke-linecap:round;stroke-linejoin:round;stroke-miterlimit:10;"/><polyline points="    30.04643,22.10153 30.50334,20.1735 30.54788,19.97292 31.3119,17.52993   " style="fill:none;stroke:#30302F;stroke-width:0.8;stroke-linecap:round;stroke-linejoin:round;stroke-miterlimit:10;"/><g><path d="     M31.40607,14.15535c0.05574,0.99183,0.32938,2.24899-0.09418,3.37458c0,0-0.13987-2.05949-0.96459-2.49412l-6.2522,2.51789     l-6.36381-2.51789c-0.82472,0.43463-1.06789,2.80838-1.06789,2.80838c-0.41236-1.08104-0.04651-2.59672,0.00912-3.57747     c0,0,0-0.02227,0-0.05563" style="fill:none;stroke:#30302F;stroke-width:0.8;stroke-linecap:round;stroke-linejoin:round;stroke-miterlimit:10;"/></g><path d="    M31.40272,14.20936c0,0,0.38939-5.71186-5.27526-7.05361c0,0,0.38812,3.02523-2.03237,3.60817" style="fill:none;stroke:#30302F;stroke-width:0.8;stroke-linecap:round;stroke-linejoin:round;stroke-miterlimit:10;"/><path d="    M16.6701,14.30157c0,0-0.41109-5.80407,5.25356-7.14582c0,0-0.38812,3.02523,2.03236,3.60817" style="fill:none;stroke:#30302F;stroke-width:0.8;stroke-linecap:round;stroke-linejoin:round;stroke-miterlimit:10;"/><polygon points="    25.12225,18.92985 25.12225,19.30873 29.0434,19.30873 29.0434,17.23918   " style="fill:none;stroke:#30302F;stroke-width:0.8;stroke-linecap:round;stroke-linejoin:round;stroke-miterlimit:10;"/><polygon points="    23.08192,18.92985 23.08192,19.30873 19.16064,19.30873 19.16064,17.23918   " style="fill:none;stroke:#30302F;stroke-width:0.8;stroke-linecap:round;stroke-linejoin:round;stroke-miterlimit:10;"/><path d="    M27.97252,27.39769c0,0,7.3104,7.77053-4.02018,9.2607" style="fill:none;stroke:#30302F;stroke-width:0.8;stroke-linecap:round;stroke-linejoin:round;stroke-miterlimit:10;"/><path d="    M19.74242,27.39769c0,0-7.31051,7.77053,4.02018,9.2607" style="fill:none;stroke:#30302F;stroke-width:0.8;stroke-linecap:round;stroke-linejoin:round;stroke-miterlimit:10;"/><path d="    M41.95971,38.00245c0,0-6.24551-6.3458-11.68258-5.42195" style="fill:none;stroke:#30302F;stroke-width:0.8;stroke-linecap:round;stroke-linejoin:round;stroke-miterlimit:10;"/><path d="    M17.4325,32.53896c-5.47908-0.71819-11.39221,5.4635-11.39221,5.4635" style="fill:none;stroke:#30302F;stroke-width:0.8;stroke-linecap:round;stroke-linejoin:round;stroke-miterlimit:10;"/><line style="fill:none;stroke:#30302F;stroke-width:0.8;stroke-linecap:round;stroke-linejoin:round;stroke-miterlimit:10;" x1="17.422" x2="16.66341" y1="19.96507" y2="17.84419"/><polyline points="    23.29554,24.34914 24.08113,24.77223 25.00684,24.34914   " style="fill:none;stroke:#30302F;stroke-width:0.8;stroke-linecap:round;stroke-linejoin:round;stroke-miterlimit:10;"/></g></g></svg>